<?xml version="1.0" encoding="UTF-8" standalone="no"?>
<!DOCTYPE svg PUBLIC "-//W3C//DTD SVG 1.1//EN"
 "http://www.w3.org/Graphics/SVG/1.1/DTD/svg11.dtd">
<!-- Generated by graphviz version 2.40.1 (20161225.0304)
 -->
<!-- Title: G Pages: 1 -->
<svg width="278pt" height="263pt"
 viewBox="0.00 0.00 278.00 263.00" xmlns="http://www.w3.org/2000/svg" xmlns:xlink="http://www.w3.org/1999/xlink">
<g id="graph0" class="graph" transform="scale(1 1) rotate(0) translate(4 259)">
<title>G</title>
<polygon fill="#ffffff" stroke="transparent" points="-4,4 -4,-259 274,-259 274,4 -4,4"/>
<!-- 1 -->
<g id="node1" class="node">
<title>1</title>
<text text-anchor="middle" x="27" y="-232.8" font-family="Times,serif" font-size="14.00" fill="#000000">1</text>
</g>
<!-- 2 -->
<g id="node2" class="node">
<title>2</title>
<text text-anchor="middle" x="27" y="-159.8" font-family="Times,serif" font-size="14.00" fill="#000000">2</text>
</g>
<!-- 1&#45;&gt;2 -->
<g id="edge1" class="edge">
<title>1&#45;&gt;2</title>
<path fill="none" stroke="#000000" d="M21.0843,-218.9551C20.2858,-210.8828 20.0605,-201.1764 20.4083,-192.1817"/>
<polygon fill="#000000" stroke="#000000" points="23.908,-192.3007 21.0798,-182.0904 16.9235,-191.8359 23.908,-192.3007"/>
</g>
<!-- 2&#45;&gt;1 -->
<g id="edge6" class="edge">
<title>2&#45;&gt;1</title>
<path fill="none" stroke="#ff0000" d="M32.9202,-182.0904C33.7165,-190.1687 33.9397,-199.8769 33.5898,-208.8688"/>
<polygon fill="#ff0000" stroke="#ff0000" points="30.0904,-208.7439 32.9157,-218.9551 37.0748,-209.2107 30.0904,-208.7439"/>
</g>
<!-- 3 -->
<g id="node3" class="node">
<title>3</title>
<text text-anchor="middle" x="27" y="-86.8" font-family="Times,serif" font-size="14.00" fill="#000000">3</text>
</g>
<!-- 2&#45;&gt;3 -->
<g id="edge2" class="edge">
<title>2&#45;&gt;3</title>
<path fill="none" stroke="#000000" d="M21.0843,-145.9551C20.2858,-137.8828 20.0605,-128.1764 20.4083,-119.1817"/>
<polygon fill="#000000" stroke="#000000" points="23.908,-119.3007 21.0798,-109.0904 16.9235,-118.8359 23.908,-119.3007"/>
</g>
<!-- 3&#45;&gt;2 -->
<g id="edge5" class="edge">
<title>3&#45;&gt;2</title>
<path fill="none" stroke="#ff0000" d="M32.9202,-109.0904C33.7165,-117.1687 33.9397,-126.8769 33.5898,-135.8688"/>
<polygon fill="#ff0000" stroke="#ff0000" points="30.0904,-135.7439 32.9157,-145.9551 37.0748,-136.2107 30.0904,-135.7439"/>
</g>
<!-- 4 -->
<g id="node4" class="node">
<title>4</title>
<text text-anchor="middle" x="27" y="-13.8" font-family="Times,serif" font-size="14.00" fill="#000000">4</text>
</g>
<!-- 3&#45;&gt;4 -->
<g id="edge3" class="edge">
<title>3&#45;&gt;4</title>
<path fill="none" stroke="#000000" d="M21.0843,-72.9551C20.2858,-64.8828 20.0605,-55.1764 20.4083,-46.1817"/>
<polygon fill="#000000" stroke="#000000" points="23.908,-46.3007 21.0798,-36.0904 16.9235,-45.8359 23.908,-46.3007"/>
</g>
<!-- 4&#45;&gt;3 -->
<g id="edge4" class="edge">
<title>4&#45;&gt;3</title>
<path fill="none" stroke="#ff0000" d="M32.9202,-36.0904C33.7165,-44.1687 33.9397,-53.8769 33.5898,-62.8688"/>
<polygon fill="#ff0000" stroke="#ff0000" points="30.0904,-62.7439 32.9157,-72.9551 37.0748,-63.2107 30.0904,-62.7439"/>
</g>
<!-- a -->
<g id="node5" class="node">
<title>a</title>
<ellipse fill="none" stroke="#000000" cx="99" cy="-237" rx="27" ry="18"/>
<text text-anchor="middle" x="99" y="-232.8" font-family="Times,serif" font-size="14.00" fill="#000000">a=5</text>
</g>
<!-- formula1 -->
<g id="node6" class="node">
<title>formula1</title>
<polygon fill="none" stroke="#000000" points="147,-109 93,-109 93,-73 147,-73 147,-109"/>
<text text-anchor="middle" x="120" y="-86.8" font-family="Times,serif" font-size="14.00" fill="#000000">v=a+u</text>
</g>
<!-- a&#45;&gt;formula1 -->
<g id="edge7" class="edge">
<title>a&#45;&gt;formula1</title>
<path fill="none" stroke="#000000" d="M96.9734,-218.8042C98.0631,-193.8868 104.2558,-148.8938 110.4221,-119.4877"/>
<polygon fill="#000000" stroke="#000000" points="113.9056,-119.9492 112.6832,-109.4251 107.0759,-118.4145 113.9056,-119.9492"/>
</g>
<!-- formula1&#45;&gt;a -->
<g id="edge18" class="edge">
<title>formula1&#45;&gt;a</title>
<path fill="none" stroke="#ff0000" d="M122.0294,-109.1315C120.9371,-134.2757 114.6296,-179.9507 108.3995,-209.3587"/>
<polygon fill="#ff0000" stroke="#ff0000" points="104.9232,-208.8617 106.1176,-219.389 111.7488,-210.4146 104.9232,-208.8617"/>
</g>
<!-- formula1&#45;&gt;formula1 -->
<g id="edge13" class="edge">
<title>formula1&#45;&gt;formula1</title>
<path fill="none" stroke="#ffffff" d="M147.2408,-97.7434C157.0239,-97.8884 165,-95.6406 165,-91 165,-88.1721 162.0382,-86.2328 157.5105,-85.182"/>
<polygon fill="#ffffff" stroke="#ffffff" points="157.5146,-81.6683 147.2408,-84.2566 156.8863,-88.64 157.5146,-81.6683"/>
<text text-anchor="middle" x="172" y="-86.8" font-family="Times,serif" font-size="14.00" fill="#000000">11</text>
</g>
<!-- formula0 -->
<g id="node8" class="node">
<title>formula0</title>
<polygon fill="none" stroke="#000000" points="198,-182 144,-182 144,-146 198,-146 198,-182"/>
<text text-anchor="middle" x="171" y="-159.8" font-family="Times,serif" font-size="14.00" fill="#000000">u=bc</text>
</g>
<!-- formula1&#45;&gt;formula0 -->
<g id="edge19" class="edge">
<title>formula1&#45;&gt;formula0</title>
<path fill="none" stroke="#ff0000" d="M138.5587,-109.0904C145.3487,-117.6077 152.7675,-127.9369 158.8939,-137.3282"/>
<polygon fill="#ff0000" stroke="#ff0000" points="156.0281,-139.3461 164.309,-145.9551 161.9569,-135.6246 156.0281,-139.3461"/>
</g>
<!-- formula2 -->
<g id="node10" class="node">
<title>formula2</title>
<polygon fill="none" stroke="#000000" points="147,-36 93,-36 93,0 147,0 147,-36"/>
<text text-anchor="middle" x="120" y="-13.8" font-family="Times,serif" font-size="14.00" fill="#000000">J=3v</text>
</g>
<!-- formula1&#45;&gt;formula2 -->
<g id="edge11" class="edge">
<title>formula1&#45;&gt;formula2</title>
<path fill="none" stroke="#000000" d="M114.0843,-72.9551C113.2858,-64.8828 113.0605,-55.1764 113.4083,-46.1817"/>
<polygon fill="#000000" stroke="#000000" points="116.908,-46.3007 114.0798,-36.0904 109.9235,-45.8359 116.908,-46.3007"/>
</g>
<!-- b -->
<g id="node7" class="node">
<title>b</title>
<ellipse fill="none" stroke="#000000" cx="171" cy="-237" rx="27" ry="18"/>
<text text-anchor="middle" x="171" y="-232.8" font-family="Times,serif" font-size="14.00" fill="#000000">b=3</text>
</g>
<!-- b&#45;&gt;formula0 -->
<g id="edge8" class="edge">
<title>b&#45;&gt;formula0</title>
<path fill="none" stroke="#000000" d="M165.1218,-219.3287C164.2947,-211.2007 164.0561,-201.3571 164.4061,-192.2394"/>
<polygon fill="#000000" stroke="#000000" points="167.9146,-192.2262 165.0872,-182.0157 160.9301,-191.7609 167.9146,-192.2262"/>
</g>
<!-- formula0&#45;&gt;formula1 -->
<g id="edge10" class="edge">
<title>formula0&#45;&gt;formula1</title>
<path fill="none" stroke="#000000" d="M152.4775,-145.9551C145.6897,-137.4441 138.2698,-127.1165 132.1388,-117.7219"/>
<polygon fill="#000000" stroke="#000000" points="135.0005,-115.6976 126.7183,-109.0904 129.0725,-119.4203 135.0005,-115.6976"/>
</g>
<!-- formula0&#45;&gt;b -->
<g id="edge15" class="edge">
<title>formula0&#45;&gt;b</title>
<path fill="none" stroke="#ff0000" d="M176.9128,-182.0157C177.7233,-190.1916 177.9453,-200.0486 177.5788,-209.1453"/>
<polygon fill="#ff0000" stroke="#ff0000" points="174.0729,-209.1121 176.8782,-219.3287 181.0564,-209.5926 174.0729,-209.1121"/>
</g>
<!-- formula0&#45;&gt;formula0 -->
<g id="edge12" class="edge">
<title>formula0&#45;&gt;formula0</title>
<path fill="none" stroke="#ffffff" d="M198.2408,-170.7434C208.0239,-170.8884 216,-168.6406 216,-164 216,-161.1721 213.0382,-159.2328 208.5105,-158.182"/>
<polygon fill="#ffffff" stroke="#ffffff" points="208.5146,-154.6683 198.2408,-157.2566 207.8863,-161.64 208.5146,-154.6683"/>
<text text-anchor="middle" x="219.5" y="-159.8" font-family="Times,serif" font-size="14.00" fill="#000000">6</text>
</g>
<!-- c -->
<g id="node9" class="node">
<title>c</title>
<ellipse fill="none" stroke="#000000" cx="243" cy="-237" rx="27" ry="18"/>
<text text-anchor="middle" x="243" y="-232.8" font-family="Times,serif" font-size="14.00" fill="#000000">c=2</text>
</g>
<!-- formula0&#45;&gt;c -->
<g id="edge16" class="edge">
<title>formula0&#45;&gt;c</title>
<path fill="none" stroke="#ff0000" d="M194.7008,-182.0332C204.761,-191.3027 216.1929,-202.7295 225.4907,-212.7591"/>
<polygon fill="#ff0000" stroke="#ff0000" points="223.123,-215.3594 232.4229,-220.4352 228.3181,-210.6678 223.123,-215.3594"/>
</g>
<!-- c&#45;&gt;formula0 -->
<g id="edge9" class="edge">
<title>c&#45;&gt;formula0</title>
<path fill="none" stroke="#000000" d="M224.43,-223.6107C213.8022,-214.1796 200.6768,-201.2516 190.0036,-189.8452"/>
<polygon fill="#000000" stroke="#000000" points="192.3962,-187.275 183.067,-182.2532 187.2284,-191.9967 192.3962,-187.275"/>
</g>
<!-- formula2&#45;&gt;formula1 -->
<g id="edge17" class="edge">
<title>formula2&#45;&gt;formula1</title>
<path fill="none" stroke="#ff0000" d="M125.9202,-36.0904C126.7165,-44.1687 126.9397,-53.8769 126.5898,-62.8688"/>
<polygon fill="#ff0000" stroke="#ff0000" points="123.0904,-62.7439 125.9157,-72.9551 130.0748,-63.2107 123.0904,-62.7439"/>
</g>
<!-- formula2&#45;&gt;formula2 -->
<g id="edge14" class="edge">
<title>formula2&#45;&gt;formula2</title>
<path fill="none" stroke="#ffffff" d="M147.2408,-24.7434C157.0239,-24.8884 165,-22.6406 165,-18 165,-15.1721 162.0382,-13.2328 157.5105,-12.182"/>
<polygon fill="#ffffff" stroke="#ffffff" points="157.5146,-8.6683 147.2408,-11.2566 156.8863,-15.64 157.5146,-8.6683"/>
<text text-anchor="middle" x="210.1031" y="-13.8" font-family="Times,serif" font-size="14.00" fill="#000000">33 cost function</text>
</g>
</g>
</svg>
