<?xml version="1.0" encoding="UTF-8" standalone="no"?>
<!DOCTYPE svg PUBLIC "-//W3C//DTD SVG 1.1//EN"
 "http://www.w3.org/Graphics/SVG/1.1/DTD/svg11.dtd">
<!-- Generated by graphviz version 2.40.1 (20161225.0304)
 -->
<!-- Title: G Pages: 1 -->
<svg width="422pt" height="260pt"
 viewBox="0.00 0.00 422.00 260.00" xmlns="http://www.w3.org/2000/svg" xmlns:xlink="http://www.w3.org/1999/xlink">
<g id="graph0" class="graph" transform="scale(1 1) rotate(0) translate(4 256)">
<title>G</title>
<polygon fill="#ffffff" stroke="transparent" points="-4,4 -4,-256 418,-256 418,4 -4,4"/>
<!-- 1 -->
<g id="node1" class="node">
<title>1</title>
<text text-anchor="middle" x="27" y="-229.8" font-family="Times,serif" font-size="14.00" fill="#000000">1</text>
</g>
<!-- 2 -->
<g id="node2" class="node">
<title>2</title>
<text text-anchor="middle" x="27" y="-157.8" font-family="Times,serif" font-size="14.00" fill="#000000">2</text>
</g>
<!-- 1&#45;&gt;2 -->
<g id="edge1" class="edge">
<title>1&#45;&gt;2</title>
<path fill="none" stroke="#000000" d="M27,-215.8314C27,-208.131 27,-198.9743 27,-190.4166"/>
<polygon fill="#000000" stroke="#000000" points="30.5001,-190.4132 27,-180.4133 23.5001,-190.4133 30.5001,-190.4132"/>
</g>
<!-- 3 -->
<g id="node3" class="node">
<title>3</title>
<text text-anchor="middle" x="27" y="-85.8" font-family="Times,serif" font-size="14.00" fill="#000000">3</text>
</g>
<!-- 2&#45;&gt;3 -->
<g id="edge2" class="edge">
<title>2&#45;&gt;3</title>
<path fill="none" stroke="#000000" d="M27,-143.8314C27,-136.131 27,-126.9743 27,-118.4166"/>
<polygon fill="#000000" stroke="#000000" points="30.5001,-118.4132 27,-108.4133 23.5001,-118.4133 30.5001,-118.4132"/>
</g>
<!-- 4 -->
<g id="node4" class="node">
<title>4</title>
<text text-anchor="middle" x="27" y="-13.8" font-family="Times,serif" font-size="14.00" fill="#000000">4</text>
</g>
<!-- 3&#45;&gt;4 -->
<g id="edge3" class="edge">
<title>3&#45;&gt;4</title>
<path fill="none" stroke="#000000" d="M27,-71.8314C27,-64.131 27,-54.9743 27,-46.4166"/>
<polygon fill="#000000" stroke="#000000" points="30.5001,-46.4132 27,-36.4133 23.5001,-46.4133 30.5001,-46.4132"/>
</g>
<!-- x_1 -->
<g id="node5" class="node">
<title>x_1</title>
<ellipse fill="none" stroke="#000000" cx="99" cy="-234" rx="27" ry="18"/>
<text text-anchor="middle" x="99" y="-229.8" font-family="Times,serif" font-size="14.00" fill="#000000">x₁</text>
</g>
<!-- z -->
<g id="node6" class="node">
<title>z</title>
<polygon fill="none" stroke="#000000" points="307.6116,-180 178.3884,-180 178.3884,-144 307.6116,-144 307.6116,-180"/>
<text text-anchor="middle" x="243" y="-157.8" font-family="Times,serif" font-size="14.00" fill="#000000">z=w₁x₁+w₂x₂+b</text>
</g>
<!-- x_1&#45;&gt;z -->
<g id="edge4" class="edge">
<title>x_1&#45;&gt;z</title>
<path fill="none" stroke="#000000" d="M120.8705,-223.0647C141.1918,-212.9041 172.0896,-197.4552 197.722,-184.639"/>
<polygon fill="#000000" stroke="#000000" points="199.5189,-187.6537 206.8979,-180.051 196.3884,-181.3927 199.5189,-187.6537"/>
</g>
<!-- yp -->
<g id="node11" class="node">
<title>yp</title>
<polygon fill="none" stroke="#000000" points="280.7008,-108 205.2992,-108 205.2992,-72 280.7008,-72 280.7008,-108"/>
<text text-anchor="middle" x="243" y="-85.8" font-family="Times,serif" font-size="14.00" fill="#000000">ŷ=a=σ(z)</text>
</g>
<!-- z&#45;&gt;yp -->
<g id="edge9" class="edge">
<title>z&#45;&gt;yp</title>
<path fill="none" stroke="#000000" d="M243,-143.8314C243,-136.131 243,-126.9743 243,-118.4166"/>
<polygon fill="#000000" stroke="#000000" points="246.5001,-118.4132 243,-108.4133 239.5001,-118.4133 246.5001,-118.4132"/>
</g>
<!-- w_1 -->
<g id="node7" class="node">
<title>w_1</title>
<ellipse fill="none" stroke="#000000" cx="171" cy="-234" rx="27" ry="18"/>
<text text-anchor="middle" x="171" y="-229.8" font-family="Times,serif" font-size="14.00" fill="#000000">w₁</text>
</g>
<!-- w_1&#45;&gt;z -->
<g id="edge5" class="edge">
<title>w_1&#45;&gt;z</title>
<path fill="none" stroke="#000000" d="M186.2693,-218.7307C195.3708,-209.6292 207.1539,-197.8461 217.6212,-187.3788"/>
<polygon fill="#000000" stroke="#000000" points="220.3571,-189.5927 224.9533,-180.0467 215.4073,-184.6429 220.3571,-189.5927"/>
</g>
<!-- x_2 -->
<g id="node8" class="node">
<title>x_2</title>
<ellipse fill="none" stroke="#000000" cx="243" cy="-234" rx="27" ry="18"/>
<text text-anchor="middle" x="243" y="-229.8" font-family="Times,serif" font-size="14.00" fill="#000000">x₂</text>
</g>
<!-- x_2&#45;&gt;z -->
<g id="edge6" class="edge">
<title>x_2&#45;&gt;z</title>
<path fill="none" stroke="#000000" d="M243,-215.8314C243,-208.131 243,-198.9743 243,-190.4166"/>
<polygon fill="#000000" stroke="#000000" points="246.5001,-190.4132 243,-180.4133 239.5001,-190.4133 246.5001,-190.4132"/>
</g>
<!-- w_2 -->
<g id="node9" class="node">
<title>w_2</title>
<ellipse fill="none" stroke="#000000" cx="315" cy="-234" rx="27" ry="18"/>
<text text-anchor="middle" x="315" y="-229.8" font-family="Times,serif" font-size="14.00" fill="#000000">w₂</text>
</g>
<!-- w_2&#45;&gt;z -->
<g id="edge7" class="edge">
<title>w_2&#45;&gt;z</title>
<path fill="none" stroke="#000000" d="M299.7307,-218.7307C290.6292,-209.6292 278.8461,-197.8461 268.3788,-187.3788"/>
<polygon fill="#000000" stroke="#000000" points="270.5927,-184.6429 261.0467,-180.0467 265.6429,-189.5927 270.5927,-184.6429"/>
</g>
<!-- b -->
<g id="node10" class="node">
<title>b</title>
<ellipse fill="none" stroke="#000000" cx="387" cy="-234" rx="27" ry="18"/>
<text text-anchor="middle" x="387" y="-229.8" font-family="Times,serif" font-size="14.00" fill="#000000">b</text>
</g>
<!-- b&#45;&gt;z -->
<g id="edge8" class="edge">
<title>b&#45;&gt;z</title>
<path fill="none" stroke="#000000" d="M365.1295,-223.0647C344.8082,-212.9041 313.9104,-197.4552 288.278,-184.639"/>
<polygon fill="#000000" stroke="#000000" points="289.6116,-181.3927 279.1021,-180.051 286.4811,-187.6537 289.6116,-181.3927"/>
</g>
<!-- L -->
<g id="node12" class="node">
<title>L</title>
<polygon fill="none" stroke="#000000" points="270,-36 216,-36 216,0 270,0 270,-36"/>
<text text-anchor="middle" x="243" y="-13.8" font-family="Times,serif" font-size="14.00" fill="#000000">L(a,y)</text>
</g>
<!-- yp&#45;&gt;L -->
<g id="edge10" class="edge">
<title>yp&#45;&gt;L</title>
<path fill="none" stroke="#000000" d="M243,-71.8314C243,-64.131 243,-54.9743 243,-46.4166"/>
<polygon fill="#000000" stroke="#000000" points="246.5001,-46.4132 243,-36.4133 239.5001,-46.4133 246.5001,-46.4132"/>
</g>
</g>
</svg>
