<?xml version="1.0" encoding="UTF-8" standalone="no"?>
<!DOCTYPE svg PUBLIC "-//W3C//DTD SVG 1.1//EN"
 "http://www.w3.org/Graphics/SVG/1.1/DTD/svg11.dtd">
<!-- Generated by graphviz version 2.40.1 (20161225.0304)
 -->
<!-- Title: G Pages: 1 -->
<svg width="226pt" height="263pt"
 viewBox="0.00 0.00 226.00 263.00" xmlns="http://www.w3.org/2000/svg" xmlns:xlink="http://www.w3.org/1999/xlink">
<g id="graph0" class="graph" transform="scale(1 1) rotate(0) translate(4 259)">
<title>G</title>
<polygon fill="#ffffff" stroke="transparent" points="-4,4 -4,-259 222,-259 222,4 -4,4"/>
<!-- a -->
<g id="node1" class="node">
<title>a</title>
<ellipse fill="none" stroke="#000000" cx="110" cy="-237" rx="27" ry="18"/>
<text text-anchor="middle" x="110" y="-232.8" font-family="Times,serif" font-size="14.00" fill="#000000">a=5</text>
</g>
<!-- formula1 -->
<g id="node2" class="node">
<title>formula1</title>
<polygon fill="none" stroke="#000000" points="137.6105,-182 82.3895,-182 82.3895,-146 137.6105,-146 137.6105,-182"/>
<text text-anchor="middle" x="110" y="-159.8" font-family="Times,serif" font-size="14.00" fill="#000000">V=a+u</text>
</g>
<!-- a&#45;&gt;formula1 -->
<g id="edge1" class="edge">
<title>a&#45;&gt;formula1</title>
<path fill="none" stroke="#000000" d="M104.1218,-219.3287C103.2947,-211.2007 103.0561,-201.3571 103.4061,-192.2394"/>
<polygon fill="#000000" stroke="#000000" points="106.9146,-192.2262 104.0872,-182.0157 99.9301,-191.7609 106.9146,-192.2262"/>
</g>
<!-- formula1&#45;&gt;a -->
<g id="edge12" class="edge">
<title>formula1&#45;&gt;a</title>
<path fill="none" stroke="#ff0000" d="M115.9128,-182.0157C116.7233,-190.1916 116.9453,-200.0486 116.5788,-209.1453"/>
<polygon fill="#ff0000" stroke="#ff0000" points="113.0729,-209.1121 115.8782,-219.3287 120.0564,-209.5926 113.0729,-209.1121"/>
</g>
<!-- formula1&#45;&gt;formula1 -->
<g id="edge7" class="edge">
<title>formula1&#45;&gt;formula1</title>
<path fill="none" stroke="#ffffff" d="M137.5769,-170.7434C147.4807,-170.8884 155.5552,-168.6406 155.5552,-164 155.5552,-161.0996 152.4011,-159.1339 147.6176,-158.1029"/>
<polygon fill="#ffffff" stroke="#ffffff" points="147.8355,-154.609 137.5769,-157.2566 147.2475,-161.5842 147.8355,-154.609"/>
<text text-anchor="middle" x="162.5552" y="-159.8" font-family="Times,serif" font-size="14.00" fill="#000000">11</text>
</g>
<!-- formula0 -->
<g id="node4" class="node">
<title>formula0</title>
<polygon fill="none" stroke="#000000" points="89,-109 35,-109 35,-73 89,-73 89,-109"/>
<text text-anchor="middle" x="62" y="-86.8" font-family="Times,serif" font-size="14.00" fill="#000000">u=bc</text>
</g>
<!-- formula1&#45;&gt;formula0 -->
<g id="edge13" class="edge">
<title>formula1&#45;&gt;formula0</title>
<path fill="none" stroke="#ff0000" d="M92.2191,-145.9551C85.781,-137.4441 78.7855,-127.1165 73.0406,-117.7219"/>
<polygon fill="#ff0000" stroke="#ff0000" points="76.055,-115.9432 67.9748,-109.0904 70.0179,-119.4863 76.055,-115.9432"/>
</g>
<!-- formula2 -->
<g id="node6" class="node">
<title>formula2</title>
<polygon fill="none" stroke="#000000" points="186,-109 132,-109 132,-73 186,-73 186,-109"/>
<text text-anchor="middle" x="159" y="-86.8" font-family="Times,serif" font-size="14.00" fill="#000000">J=3v</text>
</g>
<!-- formula1&#45;&gt;formula2 -->
<g id="edge5" class="edge">
<title>formula1&#45;&gt;formula2</title>
<path fill="none" stroke="#000000" d="M116.1966,-145.9551C121.1681,-137.2686 128.0733,-126.6898 134.9502,-117.142"/>
<polygon fill="#000000" stroke="#000000" points="137.7788,-119.2036 140.9369,-109.0904 132.1615,-115.0268 137.7788,-119.2036"/>
</g>
<!-- b -->
<g id="node3" class="node">
<title>b</title>
<ellipse fill="none" stroke="#000000" cx="27" cy="-18" rx="27" ry="18"/>
<text text-anchor="middle" x="27" y="-13.8" font-family="Times,serif" font-size="14.00" fill="#000000">b=3</text>
</g>
<!-- b&#45;&gt;formula0 -->
<g id="edge2" class="edge">
<title>b&#45;&gt;formula0</title>
<path fill="none" stroke="#000000" d="M40.2813,-33.854C45.4287,-42.4889 50.9661,-53.4209 55.3381,-63.4059"/>
<polygon fill="#000000" stroke="#000000" points="52.2244,-65.0371 59.264,-72.9551 58.6986,-62.3753 52.2244,-65.0371"/>
</g>
<!-- formula0&#45;&gt;formula1 -->
<g id="edge4" class="edge">
<title>formula0&#45;&gt;formula1</title>
<path fill="none" stroke="#000000" d="M79.8152,-109.0904C86.2553,-117.6077 93.2495,-127.9369 98.99,-137.3282"/>
<polygon fill="#000000" stroke="#000000" points="95.9718,-139.1005 104.0506,-145.9551 102.0097,-135.5586 95.9718,-139.1005"/>
</g>
<!-- formula0&#45;&gt;b -->
<g id="edge9" class="edge">
<title>formula0&#45;&gt;b</title>
<path fill="none" stroke="#ff0000" d="M47.4326,-72.9551C42.6624,-64.7074 37.6726,-54.7536 33.6628,-45.5962"/>
<polygon fill="#ff0000" stroke="#ff0000" points="36.7939,-44.0074 29.7533,-36.0904 30.3201,-46.67 36.7939,-44.0074"/>
</g>
<!-- formula0&#45;&gt;formula0 -->
<g id="edge6" class="edge">
<title>formula0&#45;&gt;formula0</title>
<path fill="none" stroke="#ffffff" d="M89.2408,-97.7434C99.0239,-97.8884 107,-95.6406 107,-91 107,-88.1721 104.0382,-86.2328 99.5105,-85.182"/>
<polygon fill="#ffffff" stroke="#ffffff" points="99.5146,-81.6683 89.2408,-84.2566 98.8863,-88.64 99.5146,-81.6683"/>
<text text-anchor="middle" x="110.5" y="-86.8" font-family="Times,serif" font-size="14.00" fill="#000000">6</text>
</g>
<!-- c -->
<g id="node5" class="node">
<title>c</title>
<ellipse fill="none" stroke="#000000" cx="99" cy="-18" rx="27" ry="18"/>
<text text-anchor="middle" x="99" y="-13.8" font-family="Times,serif" font-size="14.00" fill="#000000">c=2</text>
</g>
<!-- formula0&#45;&gt;c -->
<g id="edge10" class="edge">
<title>formula0&#45;&gt;c</title>
<path fill="none" stroke="#ff0000" d="M65.2303,-72.9551C68.9754,-63.7745 74.5332,-52.4802 80.1544,-42.5232"/>
<polygon fill="#ff0000" stroke="#ff0000" points="83.2038,-44.2425 85.2844,-33.854 77.1795,-40.6776 83.2038,-44.2425"/>
</g>
<!-- c&#45;&gt;formula0 -->
<g id="edge3" class="edge">
<title>c&#45;&gt;formula0</title>
<path fill="none" stroke="#000000" d="M95.7511,-36.0904C92.3095,-44.5199 87.3444,-54.7241 82.2068,-64.0374"/>
<polygon fill="#000000" stroke="#000000" points="79.0276,-62.5442 77.0618,-72.9551 85.0909,-66.0424 79.0276,-62.5442"/>
</g>
<!-- formula2&#45;&gt;formula1 -->
<g id="edge11" class="edge">
<title>formula2&#45;&gt;formula1</title>
<path fill="none" stroke="#ff0000" d="M152.7774,-109.0904C147.7992,-117.7834 140.8906,-128.3636 134.0138,-137.9079"/>
<polygon fill="#ff0000" stroke="#ff0000" points="131.1881,-135.8424 128.0281,-145.9551 136.8047,-140.0202 131.1881,-135.8424"/>
</g>
<!-- formula2&#45;&gt;formula2 -->
<g id="edge8" class="edge">
<title>formula2&#45;&gt;formula2</title>
<path fill="none" stroke="#ffffff" d="M186.2408,-97.7434C196.0239,-97.8884 204,-95.6406 204,-91 204,-88.1721 201.0382,-86.2328 196.5105,-85.182"/>
<polygon fill="#ffffff" stroke="#ffffff" points="196.5146,-81.6683 186.2408,-84.2566 195.8863,-88.64 196.5146,-81.6683"/>
<text text-anchor="middle" x="211" y="-86.8" font-family="Times,serif" font-size="14.00" fill="#000000">33</text>
</g>
</g>
</svg>
